SplineFontDB: 3.0
FontName: Shapour
FullName: Shapour
FamilyName: Shapour
Weight: Medium
Copyright: Created by Behaafarid using FontForge. Released under GNU GPL. 2012\nEmail:behaafarid_hezaarmard@yahoo.ca
UComments: "2012-9-22: Created." 
Version: 001.001
ItalicAngle: 0
UnderlinePosition: -102
UnderlineWidth: 51
Ascent: 819
Descent: 205
LayerCount: 2
Layer: 0 0 "Back"  1
Layer: 1 0 "Fore"  0
XUID: [1021 729 229895243 10268465]
FSType: 0
OS2Version: 0
OS2_WeightWidthSlopeOnly: 0
OS2_UseTypoMetrics: 1
CreationTime: 1348360653
ModificationTime: 1349045444
OS2TypoAscent: 0
OS2TypoAOffset: 1
OS2TypoDescent: 0
OS2TypoDOffset: 1
OS2TypoLinegap: 92
OS2WinAscent: 0
OS2WinAOffset: 1
OS2WinDescent: 0
OS2WinDOffset: 1
HheadAscent: 0
HheadAOffset: 1
HheadDescent: 0
HheadDOffset: 1
OS2Vendor: 'PfEd'
DEI: 91125
Encoding: UnicodeFull
UnicodeInterp: none
NameList: Adobe Glyph List
DisplaySize: -24
AntiAlias: 1
FitToEm: 1
WinInfo: 68202 27 16
BeginChars: 1114112 28

StartChar: u10B60
Encoding: 68448 68448 0
Width: 754
VWidth: 0
Flags: HWO
LayerCount: 2
Fore
SplineSet
233 405 m 5
 325 405 l 5
 430 91 l 5
 559 91 l 5
 559 405 l 5
 652 405 l 5
 652 45 l 6
 652 33 647 22 638 13 c 4
 629 4 617 -1 605 -1 c 6
 105 -1 l 5
 105 91 l 5
 338 91 l 5
 233 405 l 5
EndSplineSet
Validated: 1
EndChar

StartChar: u10B61
Encoding: 68449 68449 1
Width: 431
VWidth: 0
Flags: HWO
LayerCount: 2
Fore
SplineSet
237 303 m 1
 329 303 l 1
 329 -160 l 2
 329 -185 308 -206 283 -206 c 2
 -693 -206 l 1
 -693 -114 l 1
 237 -114 l 1
 237 303 l 1
EndSplineSet
Validated: 1
EndChar

StartChar: u10B62
Encoding: 68450 68450 2
Width: 740
VWidth: 0
Flags: HWO
LayerCount: 2
Fore
SplineSet
548 396 m 1
 638 396 l 1
 638 44 l 2
 638 19 618 -1 593 -1 c 2
 105 -1 l 1
 105 89 l 1
 548 89 l 1
 548 396 l 1
EndSplineSet
Validated: 1
EndChar

StartChar: u10B63
Encoding: 68451 68451 3
Width: 680
VWidth: 0
Flags: HWO
LayerCount: 2
Fore
SplineSet
434 751 m 0
 436 751 438 751 440 751 c 0
 474 751 503 743 527 729 c 0
 557 711 577 680 578 648 c 0
 578 647 578 646 578 645 c 0
 578 613 564 584 542 563 c 0
 516 538 497 510 467 488 c 1
 473 485 467 487 472 483 c 0
 506 462 526 429 539 394 c 0
 554 350 559 302 559 256 c 0
 559 229 558 203 555 180 c 0
 540 40 427 -29 332 -29 c 2
 105 -29 l 1
 105 61 l 1
 332 61 l 2
 387 61 455 92 466 190 c 0
 468 211 470 233 470 256 c 0
 470 293 466 330 454 364 c 0
 448 380 439 396 425 407 c 0
 394 429 316 440 316 440 c 1
 392 527 l 2
 436 579 452 601 479 627 c 0
 487 635 488 641 488 644 c 0
 488 646 489 647 481 651 c 0
 474 655 459 659 436 659 c 0
 404 659 356 652 292 625 c 1
 258 709 l 1
 328 737 386 751 434 751 c 0
EndSplineSet
Validated: 1
EndChar

StartChar: u10B64
Encoding: 68452 68452 4
Width: 831
VWidth: 0
Flags: HWO
LayerCount: 2
Fore
SplineSet
689 529 m 1
 689 529 715 505 729 467 c 0
 733 455 735 441 735 426 c 0
 735 392 723 353 690 320 c 0
 660 290 623 284 583 284 c 0
 575 284 566 285 558 285 c 0
 526 287 492 292 457 298 c 1
 457 298 456 258 456 215 c 0
 456 194 456 172 457 154 c 0
 460 99 568 0 568 0 c 1
 472 -0 l 1
 472 -0 371 100 367 154 c 0
 366 172 365 195 365 219 c 0
 365 266 367 313 367 313 c 1
 329 320 293 325 264 327 c 0
 260 327 256 327 253 327 c 0
 221 327 202 320 202 320 c 0
 185 303 181 294 181 287 c 0
 181 283 182 279 184 275 c 0
 188 265 198 257 198 257 c 1
 142 186 l 1
 142 186 115 206 100 243 c 0
 96 254 93 267 93 281 c 0
 93 313 106 351 138 383 c 0
 167 412 203 418 242 418 c 0
 251 418 260 417 269 417 c 0
 317 414 369 404 421 395 c 0
 473 386 524 377 563 375 c 0
 567 375 571 375 574 375 c 0
 606 375 625 382 626 383 c 0
 643 399 648 410 648 420 c 0
 648 426 646 431 644 437 c 0
 639 452 628 463 628 463 c 1
 689 529 l 1
EndSplineSet
Validated: 1
EndChar

StartChar: u10B65
Encoding: 68453 68453 5
Width: 718
VWidth: 0
Flags: HWO
LayerCount: 2
Fore
SplineSet
300 549 m 2
 311 548 l 2
 311 548 394 545 437 526 c 0
 480 507 521 469 540 411 c 0
 545 397 546 384 546 370 c 0
 546 342 538 315 528 287 c 0
 514 245 492 203 470 163 c 0
 454 136 439 112 425 90 c 1
 616 90 l 1
 616 0 l 1
 340 0 l 1
 252 0 l 1
 304 72 l 1
 304 72 350 134 392 208 c 0
 412 244 432 284 444 317 c 0
 453 344 455 367 455 377 c 0
 455 379 455 381 455 382 c 0
 443 419 425 433 401 444 c 0
 377 455 344 458 312 458 c 0
 299 457 255 437 222 413 c 0
 188 389 163 364 163 364 c 1
 100 429 l 1
 100 429 130 457 169 486 c 0
 207 514 243 548 300 549 c 2
EndSplineSet
Validated: 1
EndChar

StartChar: u10B66
Encoding: 68454 68454 6
Width: 583
VWidth: 0
Flags: HWO
LayerCount: 2
Fore
SplineSet
357 524 m 1
 397 443 l 1
 397 443 371 430 347 411 c 0
 323 392 307 368 305 357 c 0
 306 356 308 354 314 350 c 0
 326 342 347 332 370 322 c 0
 393 312 418 302 441 285 c 0
 452 277 463 266 472 252 c 0
 478 240 482 226 482 211 c 0
 482 207 482 202 481 198 c 0
 478 174 464 159 451 146 c 0
 437 133 421 123 404 113 c 0
 369 93 327 75 286 60 c 0
 204 29 124 7 124 7 c 1
 100 94 l 1
 100 94 177 115 254 144 c 0
 293 159 332 175 359 191 c 0
 372 199 383 206 389 211 c 1
 388 212 388 212 387 212 c 0
 377 220 357 230 334 240 c 0
 311 250 286 260 263 276 c 0
 240 292 215 318 215 355 c 0
 215 356 215 356 215 357 c 0
 216 416 257 455 291 481 c 0
 324 508 357 524 357 524 c 1
EndSplineSet
Validated: 1
EndChar

StartChar: u10B67
Encoding: 68455 68455 7
Width: 1131
VWidth: 0
Flags: HWO
LayerCount: 2
Fore
SplineSet
588 442 m 0
 673 442 736 415 774 371 c 0
 812 327 823 271 823 221 c 0
 822 172 812 126 802 91 c 1
 940 91 l 1
 940 270 l 1
 1030 270 l 1
 1030 46 l 2
 1030 21 1010 1 985 1 c 2
 748 0 l 2
 739 1 l 1
 738 1 l 0
 726 1 694 23 694 46 c 1
 694 51 698 66 701 71 c 1
 701 71 732 147 733 221 c 0
 733 259 725 291 706 312 c 0
 688 334 656 352 588 352 c 0
 530 352 503 335 485 313 c 0
 466 290 456 256 454 218 c 0
 454 211 453 205 453 198 c 0
 453 130 470 70 470 70 c 2
 472 66 475 54 475 50 c 0
 475 25 464 0 438 0 c 0
 426 0 l 1
 103 0 l 1
 105 90 l 1
 374 90 l 1
 368 119 363 157 363 197 c 0
 363 206 363 215 364 224 c 0
 367 273 379 327 415 370 c 0
 451 414 511 442 588 442 c 0
EndSplineSet
Validated: 1
EndChar

StartChar: u10B68
Encoding: 68456 68456 8
Width: 745
VWidth: 0
Flags: HWO
LayerCount: 2
Fore
SplineSet
391 794 m 0
 550 794 645 638 645 638 c 1
 576 583 l 1
 576 583 485 704 391 704 c 0
 345 704 298 677 263 636 c 0
 227 595 206 541 205 507 c 0
 205 506 l 0
 205 479 232 434 276 392 c 0
 322 348 381 307 426 276 c 2
 470 246 l 1
 433 207 l 1
 319 91 l 1
 564 91 l 1
 564 1 l 1
 212 1 l 1
 105 1 l 1
 180 78 l 1
 331 232 l 1
 293 259 251 291 214 327 c 0
 162 377 115 434 115 504 c 0
 115 505 115 507 115 508 c 0
 116 573 147 640 195 695 c 0
 243 750 311 794 391 794 c 0
EndSplineSet
Validated: 1
EndChar

StartChar: u10B69
Encoding: 68457 68457 9
Width: 605
VWidth: 0
Flags: HWO
LayerCount: 2
Fore
SplineSet
270 530 m 2
 271 530 l 2
 275 530 279 530 283 530 c 0
 318 530 358 526 396 509 c 0
 440 490 480 452 499 394 c 0
 503 381 505 368 505 355 c 0
 505 325 495 296 482 267 c 0
 464 225 438 183 411 143 c 0
 358 65 302 -1 302 -1 c 1
 233 57 l 1
 233 57 287 120 337 194 c 0
 361 230 385 270 399 303 c 0
 411 330 414 353 414 362 c 0
 414 363 414 364 414 365 c 0
 402 402 384 416 360 427 c 0
 338 436 310 440 281 440 c 0
 278 440 274 440 271 440 c 0
 258 440 214 420 181 396 c 0
 148 372 122 347 122 347 c 1
 60 412 l 1
 60 412 89 440 128 469 c 0
 167 497 213 530 270 530 c 2
EndSplineSet
Validated: 1
EndChar

StartChar: u10B6A
Encoding: 68458 68458 10
Width: 646
VWidth: 0
Flags: HWO
LayerCount: 2
Fore
SplineSet
370 735 m 0
 372 735 374 735 376 735 c 0
 410 735 439 727 464 712 c 0
 493 695 513 664 514 631 c 0
 514 629 514 627 514 625 c 0
 514 595 500 568 478 547 c 0
 453 522 433 494 404 472 c 1
 409 469 403 470 408 467 c 0
 442 446 463 413 475 378 c 0
 480 365 482 352 482 340 c 0
 482 287 443 240 406 200 c 0
 358 146 289 111 289 90 c 0
 289 75 327 67 437 67 c 0
 468 67 503 68 545 69 c 1
 545 0 l 1
 106 0 l 1
 105 64 l 1
 130 72 225 141 296 209 c 0
 333 245 392 294 392 336 c 0
 392 340 391 344 390 348 c 0
 386 364 375 380 361 391 c 0
 330 413 252 423 252 423 c 1
 328 511 l 2
 372 562 389 585 415 611 c 0
 423 619 424 625 424 627 c 0
 424 630 425 630 417 635 c 0
 410 639 396 643 373 643 c 0
 341 643 293 635 228 609 c 1
 194 693 l 1
 264 721 322 735 370 735 c 0
EndSplineSet
Validated: 1
EndChar

StartChar: u10B6B
Encoding: 68459 68459 11
Width: 658
VWidth: 0
Flags: HWO
LayerCount: 2
Fore
SplineSet
201 752 m 1
 291 752 l 1
 291 438 l 1
 318 429 357 416 399 396 c 0
 434 379 471 359 501 331 c 0
 531 304 558 267 558 222 c 0
 558 169 544 111 500 69 c 0
 455 26 387 4 291 4 c 2
 104 4 l 1
 104 94 l 1
 291 94 l 2
 373 94 415 112 438 134 c 0
 460 155 468 184 468 221 c 0
 468 232 461 247 441 264 c 0
 421 282 391 300 360 315 c 0
 298 344 235 361 235 361 c 1
 217 365 201 385 201 404 c 2
 201 752 l 1
EndSplineSet
Validated: 1
EndChar

StartChar: u10B6C
Encoding: 68460 68460 12
Width: 762
VWidth: 0
Flags: HWO
LayerCount: 2
Fore
SplineSet
289 747 m 1
 379 747 l 1
 379 539 l 1
 435 537 489 531 534 508 c 2
 537 506 l 1
 540 504 l 2
 599 462 631 407 646 352 c 0
 660 298 660 244 660 196 c 0
 660 158 643 124 620 98 c 0
 597 72 568 54 536 40 c 0
 473 11 401 -1 342 -1 c 0
 285 -1 229 24 184 61 c 0
 140 98 105 148 105 208 c 0
 105 210 105 211 105 213 c 0
 106 250 127 277 149 298 c 0
 171 319 197 335 221 349 c 0
 246 362 271 373 289 381 c 1
 289 449 l 1
 238 448 189 444 152 443 c 1
 148 533 l 1
 183 534 234 538 289 539 c 1
 289 747 l 1
379 449 m 1
 379 350 l 1
 379 317 l 1
 348 307 l 1
 348 307 306 292 265 270 c 0
 244 259 224 245 211 233 c 0
 198 221 195 212 195 210 c 0
 195 209 195 209 195 208 c 0
 195 186 212 155 242 131 c 0
 272 105 314 89 342 89 c 0
 388 89 452 100 499 122 c 0
 523 132 542 145 553 158 c 0
 565 171 570 182 570 196 c 0
 570 244 569 290 559 329 c 0
 548 367 530 399 490 429 c 1
 468 439 426 446 379 449 c 1
EndSplineSet
Validated: 1
EndChar

StartChar: u10B6D
Encoding: 68461 68461 13
Width: 664
VWidth: 0
Flags: HWO
LayerCount: 2
Fore
SplineSet
176 677 m 1
 244 618 l 1
 208 577 204 540 204 505 c 1
 219 409 261 350 335 297 c 1
 361 275 l 1
 341 228 l 1
 318 90 l 1
 563 90 l 1
 563 0 l 1
 211 0 l 1
 104 0 l 1
 179 76 l 1
 240 253 l 1
 144 322 124 380 114 507 c 1
 115 572 128 622 176 677 c 1
EndSplineSet
Validated: 1
EndChar

StartChar: u10B6E
Encoding: 68462 68462 14
Width: 743
VWidth: 0
Flags: HWO
LayerCount: 2
Fore
SplineSet
267 551 m 0
 279 551 291 550 304 546 c 0
 328 538 354 514 361 485 c 0
 365 467 369 442 369 412 c 1
 385 416 401 419 419 422 c 0
 440 425 463 427 486 427 c 0
 497 427 509 426 520 425 c 0
 554 421 591 410 615 378 c 0
 636 350 644 317 644 285 c 0
 644 273 643 261 641 249 c 0
 634 205 619 161 602 121 c 0
 568 41 524 -25 524 -25 c 1
 449 24 l 1
 449 24 489 85 519 157 c 0
 535 192 547 230 551 262 c 0
 552 271 553 279 553 286 c 0
 553 303 549 316 544 323 c 0
 541 327 531 333 509 336 c 0
 502 337 494 337 486 337 c 0
 469 337 451 336 432 333 c 0
 406 329 381 323 362 318 c 1
 347 227 305 109 208 -27 c 1
 135 25 l 1
 255 195 279 326 279 403 c 0
 279 428 277 447 274 460 c 1
 269 461 260 461 249 459 c 0
 219 453 176 436 140 421 c 1
 105 504 l 1
 141 519 187 539 233 547 c 0
 244 549 255 551 267 551 c 0
EndSplineSet
Validated: 1
EndChar

StartChar: u10B6F
Encoding: 68463 68463 15
Width: 793
VWidth: 0
Flags: HWO
LayerCount: 2
Fore
SplineSet
327 591 m 0
 344 591 361 589 376 585 c 0
 439 570 490 531 515 479 c 0
 538 431 545 384 545 337 c 0
 545 303 541 268 539 235 c 1
 583 235 632 236 691 236 c 1
 691 146 l 1
 631 146 582 145 538 145 c 1
 538 78 536 3 536 3 c 1
 446 4 l 1
 446 4 448 79 448 144 c 1
 398 144 358 144 327 145 c 0
 258 148 216 160 179 186 c 0
 177 187 174 189 173 191 c 0
 125 237 105 302 105 364 c 0
 105 427 126 490 175 532 c 0
 223 573 277 591 327 591 c 0
327 501 m 0
 326 501 324 501 323 501 c 0
 295 501 265 491 234 464 c 0
 211 444 195 406 195 364 c 0
 195 323 209 282 233 258 c 1
 258 241 271 237 330 235 c 0
 359 234 398 234 448 234 c 1
 449 273 452 308 452 341 c 0
 452 378 448 411 434 440 c 0
 423 463 393 489 356 497 c 0
 346 500 337 501 327 501 c 0
EndSplineSet
Validated: 1
EndChar

StartChar: u10B70
Encoding: 68464 68464 16
Width: 875
VWidth: 0
Flags: HWO
LayerCount: 2
Fore
SplineSet
361 780 m 0
 511 780 544 674 567 638 c 1
 567 638 l 1
 584 619 585 608 596 590 c 0
 606 573 606 568 606 566 c 1
 620 550 l 1
 640 536 l 1
 660 520 653 530 671 530 c 0
 686 530 704 534 726 542 c 0
 727 543 745 552 746 558 c 0
 748 568 749 583 749 598 c 0
 749 603 749 609 749 614 c 0
 748 657 741 698 741 698 c 1
 829 702 l 1
 829 702 838 667 839 616 c 0
 839 610 839 605 839 599 c 0
 839 579 838 559 834 540 c 0
 829 515 820 483 785 468 c 0
 754 455 724 449 696 449 c 0
 656 449 620 461 588 476 c 1
 548 500 527 552 506 588 c 1
 506 588 l 1
 494 602 447 690 361 690 c 0
 315 690 296 669 261 628 c 0
 225 587 205 539 205 505 c 0
 205 504 l 0
 205 477 232 432 276 390 c 0
 322 346 380 305 426 274 c 2
 470 244 l 1
 433 205 l 1
 319 89 l 1
 564 89 l 1
 564 -1 l 1
 212 -1 l 1
 105 -1 l 1
 180 76 l 1
 331 230 l 1
 293 257 251 289 214 325 c 0
 162 375 115 432 115 502 c 0
 115 503 115 505 115 506 c 0
 116 571 145 632 193 687 c 0
 241 742 281 780 361 780 c 0
EndSplineSet
Validated: 1
EndChar

StartChar: u10B71
Encoding: 68465 68465 17
Width: 1138
VWidth: 0
Flags: HWO
LayerCount: 2
Fore
SplineSet
712 552 m 2
 732 553 l 2
 732 553 815 550 858 531 c 0
 901 512 942 474 961 416 c 0
 966 402 967 389 967 375 c 0
 967 347 959 320 950 292 c 0
 935 250 913 208 891 168 c 0
 875 141 860 117 846 95 c 1
 1037 95 l 1
 1039 0 l 1
 1006 0 l 1
 976 0 l 1
 365 1 l 1
 278 1 l 1
 211 1 l 1
 264 76 l 1
 264 76 309 139 351 212 c 0
 372 249 391 288 403 321 c 0
 412 346 415 368 415 379 c 0
 415 383 414 386 414 387 c 0
 402 423 385 438 360 449 c 0
 336 459 304 462 271 462 c 0
 258 462 215 442 181 418 c 0
 148 393 122 369 122 369 c 1
 60 434 l 1
 60 434 89 462 128 490 c 0
 167 519 204 552 262 552 c 2
 271 552 l 2
 275 552 279 552 283 552 c 0
 318 552 358 548 397 531 c 0
 440 512 480 474 500 415 c 0
 505 401 506 388 506 375 c 0
 506 347 498 319 488 291 c 0
 473 250 452 207 429 168 c 0
 414 141 399 117 385 95 c 1
 576 95 l 1
 576 95 l 1
 738 95 l 1
 754 118 784 163 812 213 c 0
 833 249 853 289 865 322 c 0
 874 349 876 372 876 382 c 0
 876 384 876 386 876 387 c 0
 864 424 846 438 822 449 c 0
 798 460 765 463 733 463 c 0
 720 462 676 442 643 418 c 0
 609 394 584 369 584 369 c 1
 521 434 l 1
 521 434 551 462 590 491 c 0
 628 519 655 551 712 552 c 2
EndSplineSet
Validated: 1
EndChar

StartChar: u10B72
Encoding: 68466 68466 18
Width: 856
VWidth: 0
Flags: HWO
LayerCount: 2
Fore
SplineSet
299 709 m 0
 311 709 323 708 335 704 c 0
 360 696 386 672 392 643 c 0
 397 625 400 600 401 570 c 1
 417 574 433 577 451 580 c 0
 472 583 495 585 518 585 c 0
 529 585 541 584 552 583 c 1
 586 583 622 568 647 536 c 1
 668 509 675 477 675 445 c 0
 675 432 674 420 672 407 c 0
 666 363 651 320 634 279 c 0
 599 199 594 196 594 196 c 1
 519 245 l 1
 519 245 519.006 244.994 519.02 244.994 c 0
 519.288 244.994 522.579 246.789 551 315 c 0
 566 350 579 389 583 420 c 0
 584 429 585 437 585 444 c 0
 585 461 581 474 576 481 c 0
 573 485 562 491 541 494 c 0
 534 495 526 495 518 495 c 0
 501 495 483 494 464 491 c 0
 438 487 413 481 394 476 c 1
 381 400 343 225 274 91 c 1
 755 89 l 1
 755 -1 l 1
 105 1 l 1
 166 70 l 2
 178 89 l 0
 286 261 310 457 310 559 c 0
 310 587 308 608 306 619 c 1
 301 619 292 619 281 617 c 0
 251 611 207 594 172 579 c 1
 137 662 l 1
 173 677 219 697 264 705 c 0
 276 707 287 709 299 709 c 0
EndSplineSet
Validated: 1
EndChar

StartChar: u10B78
Encoding: 68472 68472 19
Width: 550
VWidth: 0
Flags: HWO
LayerCount: 2
Fore
SplineSet
311 637 m 0
 324 637 337 636 350 634 c 0
 385 630 423 616 445 581 c 0
 463 552 470 521 470 489 c 0
 470 456 462 421 450 388 c 0
 427 324 388 261 346 203 c 0
 263 88 167 -3 167 -3 c 1
 104 62 l 1
 104 62 196 149 273 256 c 0
 312 310 347 368 365 419 c 0
 375 445 379 469 379 489 c 0
 379 507 376 522 368 534 c 0
 366 537 359 542 338 545 c 0
 331 546 324 546 315 546 c 0
 299 546 279 545 260 542 c 0
 203 533 150 515 150 515 c 1
 121 600 l 1
 121 600 180 620 246 631 c 0
 267 634 289 636 311 637 c 0
EndSplineSet
Validated: 1
EndChar

StartChar: u10B79
Encoding: 68473 68473 20
Width: 898
VWidth: 0
Flags: HWO
LayerCount: 2
Fore
SplineSet
311 656 m 0
 324 656 337 655 350 653 c 0
 385 649 423 635 445 600 c 0
 463 571 470 540 470 508 c 0
 470 475 462 440 450 407 c 0
 427 343 388 280 346 222 c 0
 263 107 167 16 167 16 c 1
 104 81 l 1
 104 81 196 168 273 275 c 0
 312 329 347 387 365 438 c 0
 375 464 379 488 379 508 c 0
 379 526 376 541 368 553 c 0
 366 556 359 561 338 564 c 0
 331 565 324 565 315 565 c 0
 299 565 279 564 260 561 c 0
 203 552 150 534 150 534 c 1
 121 619 l 1
 121 619 180 639 246 650 c 0
 267 653 289 655 311 656 c 0
654 656 m 0
 668 656 681 656 694 654 c 0
 728 649 767 636 788 600 c 0
 806 571 813 540 813 507 c 0
 813 474 806 440 794 408 c 0
 771 344 731 280 690 223 c 0
 606 108 510 16 510 16 c 1
 448 81 l 1
 448 81 539 169 617 276 c 0
 656 329 691 387 709 438 c 0
 718 465 723 488 723 507 c 0
 723 525 719 541 712 553 c 0
 710 556 703 562 682 565 c 0
 675 566 668 566 660 566 c 0
 643 566 623 564 604 561 c 0
 547 552 494 534 494 534 c 1
 465 619 l 1
 465 619 523 640 590 650 c 0
 611 653 633 656 654 656 c 0
EndSplineSet
Validated: 1
EndChar

StartChar: u10B7A
Encoding: 68474 68474 21
Width: 1238
VWidth: 0
Flags: HWO
LayerCount: 2
Fore
SplineSet
653 656 m 0
 666 656 679 655 692 653 c 0
 727 649 765 635 787 600 c 0
 805 571 812 540 812 508 c 0
 812 475 804 440 792 407 c 0
 769 343 730 280 688 222 c 0
 605 107 509 16 509 16 c 1
 446 81 l 1
 446 81 538 168 615 275 c 0
 654 329 689 387 707 438 c 0
 717 464 721 488 721 508 c 0
 721 526 718 541 710 553 c 0
 708 556 701 561 680 564 c 0
 673 565 666 565 657 565 c 0
 641 565 621 564 602 561 c 0
 545 552 492 534 492 534 c 1
 463 619 l 1
 463 619 522 639 588 650 c 0
 609 653 631 655 653 656 c 0
996 656 m 0
 1010 656 1023 656 1036 654 c 0
 1070 649 1109 636 1130 600 c 0
 1148 571 1155 540 1155 507 c 0
 1155 474 1148 440 1136 408 c 0
 1113 344 1073 280 1032 223 c 0
 948 108 852 16 852 16 c 1
 790 81 l 1
 790 81 881 169 959 276 c 0
 998 329 1033 387 1051 438 c 0
 1060 465 1065 488 1065 507 c 0
 1065 525 1061 541 1054 553 c 0
 1052 556 1045 562 1024 565 c 0
 1017 566 1010 566 1002 566 c 0
 985 566 965 564 946 561 c 0
 889 552 836 534 836 534 c 1
 807 619 l 1
 807 619 865 640 932 650 c 0
 953 653 975 656 996 656 c 0
311 654 m 0
 324 654 337 653 350 652 c 0
 385 647 423 634 445 598 c 0
 463 570 470 539 470 507 c 0
 470 473 462 439 450 406 c 0
 427 342 388 278 346 221 c 0
 263 106 167 14 167 14 c 1
 104 79 l 1
 104 79 196 167 273 274 c 0
 312 327 347 385 365 436 c 0
 375 463 379 486 379 506 c 0
 379 524 376 539 368 551 c 0
 366 554 359 560 338 563 c 0
 333 564 327 564 320 564 c 0
 302 564 281 562 260 559 c 0
 203 550 150 532 150 532 c 1
 121 617 l 1
 121 617 180 638 246 648 c 0
 267 651 289 654 311 654 c 0
EndSplineSet
Validated: 1
EndChar

StartChar: u10B7B
Encoding: 68475 68475 22
Width: 1582
VWidth: 0
Flags: HWO
LayerCount: 2
Fore
SplineSet
653 656 m 0
 666 656 679 655 692 653 c 0
 727 649 765 635 787 600 c 0
 805 571 812 540 812 508 c 0
 812 475 804 440 792 407 c 0
 769 343 730 280 688 222 c 0
 605 107 509 16 509 16 c 1
 446 81 l 1
 446 81 538 168 615 275 c 0
 654 329 689 387 707 438 c 0
 717 464 721 488 721 508 c 0
 721 526 718 541 710 553 c 0
 708 556 701 561 680 564 c 0
 673 565 666 565 657 565 c 0
 641 565 621 564 602 561 c 0
 545 552 492 534 492 534 c 1
 463 619 l 1
 463 619 522 639 588 650 c 0
 609 653 631 655 653 656 c 0
996 656 m 0
 1010 656 1023 656 1036 654 c 0
 1070 649 1109 636 1130 600 c 0
 1148 571 1155 540 1155 507 c 0
 1155 474 1148 440 1136 408 c 0
 1113 344 1073 280 1032 223 c 0
 948 108 852 16 852 16 c 1
 790 81 l 1
 790 81 881 169 959 276 c 0
 998 329 1033 387 1051 438 c 0
 1060 465 1065 488 1065 507 c 0
 1065 525 1061 541 1054 553 c 0
 1052 556 1045 562 1024 565 c 0
 1017 566 1010 566 1002 566 c 0
 985 566 965 564 946 561 c 0
 889 552 836 534 836 534 c 1
 807 619 l 1
 807 619 865 640 932 650 c 0
 953 653 975 656 996 656 c 0
311 654 m 0
 324 654 337 653 350 652 c 0
 385 647 423 634 445 598 c 0
 463 570 470 539 470 507 c 0
 470 473 462 439 450 406 c 0
 427 342 388 278 346 221 c 0
 263 106 167 14 167 14 c 1
 104 79 l 1
 104 79 196 167 273 274 c 0
 312 327 347 385 365 436 c 0
 375 463 379 486 379 506 c 0
 379 524 376 539 368 551 c 0
 366 554 359 560 338 563 c 0
 333 564 327 564 320 564 c 0
 302 564 281 562 260 559 c 0
 203 550 150 532 150 532 c 1
 121 617 l 1
 121 617 180 638 246 648 c 0
 267 651 289 654 311 654 c 0
1341 656 m 0
 1354 656 1367 656 1380 654 c 0
 1415 649 1453 636 1475 600 c 0
 1493 572 1500 541 1500 509 c 0
 1500 475 1492 441 1480 408 c 0
 1457 344 1418 280 1376 223 c 0
 1293 108 1197 16 1197 16 c 1
 1135 81 l 1
 1135 81 1226 169 1303 276 c 0
 1342 329 1377 387 1395 438 c 0
 1405 465 1409 488 1409 508 c 0
 1409 526 1406 541 1398 553 c 0
 1396 556 1389 562 1368 565 c 0
 1362 566 1354 566 1347 566 c 0
 1330 566 1310 564 1290 561 c 0
 1234 552 1180 534 1180 534 c 1
 1151 619 l 1
 1151 619 1210 640 1277 650 c 0
 1297 653 1319 656 1341 656 c 0
EndSplineSet
Validated: 1
EndChar

StartChar: u10B7C
Encoding: 68476 68476 23
Width: 740
VWidth: 0
Flags: HW
LayerCount: 2
Fore
SplineSet
549 -0 m 1
 549 306 l 1
 105 306 l 1
 105 396 l 1
 594 396 l 2
 618 396 639 376 639 351 c 2
 639 -0 l 1
 549 -0 l 1
EndSplineSet
Validated: 1
EndChar

StartChar: u10B7D
Encoding: 68477 68477 24
Width: 552
VWidth: 0
Flags: HWO
LayerCount: 2
Fore
SplineSet
118 755 m 1
 265 755 344 745 398 705 c 0
 424 685 440 656 446 628 c 1
 448 619 448 609 448 600 c 0
 448 546 419 500 391 478 c 0
 366 459 317 427 276 409 c 1
 279 408 282 407 285 406 c 0
 324 391 364 369 397 335 c 0
 429 301 452 253 452 196 c 0
 452 153 448 118 434 87 c 0
 420 56 393 31 363 20 c 0
 322 4 277 1 218 1 c 0
 188 1 155 2 118 2 c 1
 118 92 l 1
 231 92 303 93 330 103 c 0
 344 109 347 112 352 123 c 0
 357 135 362 159 362 196 c 0
 362 230 350 253 331 273 c 0
 312 293 284 310 253 322 c 0
 222 334 189 341 163 346 c 0
 149 348 138 350 129 351 c 0
 120 353 120 351 104 356 c 1
 106 442 l 1
 106 442 175 462 243 493 c 0
 289 516 361 538 361 591 c 0
 361 597 360 603 358 609 c 0
 355 622 353 626 344 633 c 0
 325 647 260 665 118 665 c 1
 118 755 l 1
EndSplineSet
Validated: 1
EndChar

StartChar: u10B7E
Encoding: 68478 68478 25
Width: 680
VWidth: 0
Flags: HW
LayerCount: 2
Fore
SplineSet
465 778 m 1
 532 718 l 1
 445 624 l 1
 490 606 527 570 550 530 c 0
 568 499 579 464 579 428 c 0
 579 424 579 420 579 416 c 0
 577 376 558 334 522 306 c 0
 495 286 464 277 433 277 c 0
 390 277 347 294 313 319 c 0
 284 339 259 367 243 399 c 1
 212 365 l 1
 353 224 l 2
 361 216 366 204 366 193 c 0
 366 181 361 169 353 161 c 2
 196 4 l 1
 132 68 l 1
 257 193 l 1
 118 331 l 2
 110 339 105 351 105 362 c 0
 105 373 109 385 116 393 c 2
 344 647 l 2
 344 647 345 647 345 648 c 2
 368 673 l 1
 369 673 l 1
 465 778 l 1
387 546 m 0
 383 546 378 546 374 545 c 1
 317 482 l 1
 316 479 316 475 316 471 c 0
 316 445 334 414 365 392 c 0
 387 376 411 367 432 367 c 0
 446 367 458 371 468 378 c 0
 483 389 488 402 489 421 c 0
 489 422 489 424 489 425 c 0
 489 443 483 465 472 485 c 0
 452 520 420 544 387 546 c 0
EndSplineSet
Validated: 1
EndChar

StartChar: u10B7F
Encoding: 68479 68479 26
Width: 824
VWidth: 0
Flags: HW
LayerCount: 2
Fore
SplineSet
295 706 m 0
 302 706 308 706 315 706 c 0
 340 704 363 698 384 689 c 0
 404 679 428 666 434 632 c 0
 438 613 439 588 439 558 c 0
 439 520 437 474 437 422 c 1
 523 422 590 422 628 422 c 1
 632 633 l 1
 722 631 l 1
 718 377 l 2
 718 365 713 354 705 346 c 0
 696 337 685 333 673 333 c 2
 673 333 553 332 436 332 c 1
 436 316 436 300 436 285 c 0
 436 212 437 153 437 113 c 0
 437 104 437 97 437 90 c 1
 675 90 l 1
 675 0 l 1
 390 0 l 2
 378 0 366 5 358 14 c 0
 349 23 345 35 345 47 c 2
 345 47 347 187 348 332 c 1
 318 332 298 331 277 331 c 0
 272 331 266 331 261 331 c 0
 232 333 203 340 172 356 c 0
 145 369 129 393 120 417 c 0
 110 441 105 468 105 496 c 0
 105 498 105 500 105 502 c 0
 105 555 119 614 160 655 c 0
 197 693 245 706 290 706 c 0
 292 706 293 706 295 706 c 0
284 614 m 0
 256 614 239 607 224 593 c 0
 207 575 190 545 190 509 c 0
 190 508 190 507 190 506 c 1
 190 504 190 502 190 500 c 0
 190 483 201 463 214 455 c 1
 226 444 241 432 244 432 c 0
 261 425 l 0
 261 425 260 426 258 427 c 1
 268 422 274 420 280 420 c 0
 285 420 321 416 328 416 c 0
 329 416 300 421 302 421 c 1
 353 422 l 1
 353 428 353 433 353 439 c 0
 353 459 353 481 353 504 c 0
 353 541 352 578 346 607 c 1
 338 611 324 615 308 616 c 0
 303 616 288 614 284 614 c 0
EndSplineSet
Validated: 1
EndChar

